<svg xmlns="http://www.w3.org/2000/svg" width="24" height="24" viewBox="0 0 24 24">
    <defs>
        <filter id="6qmffokloa">
            <feColorMatrix in="SourceGraphic" values="0 0 0 0 0.479901 0 0 0 0 0.517700 0 0 0 0 0.595817 0 0 0 1.000000 0"/>
        </filter>
    </defs>
    <g fill="none" fill-rule="evenodd">
        <g>
            <g filter="url(#6qmffokloa)" transform="translate(-1060 -253) translate(1040 140)">
                <g>
                    <path d="M0 0H24V24H0z" transform="translate(20 113)"/>
                    <path fill="#7A8498" fill-rule="nonzero" d="M11.99 2C6.47 2 2 6.48 2 12s4.47 10 9.99 10C17.52 22 22 17.52 22 12S17.52 2 11.99 2zM8.5 8c.83 0 1.5.67 1.5 1.5S9.33 11 8.5 11 7 10.33 7 9.5 7.67 8 8.5 8zM12 18c-2.28 0-4.22-1.66-5-4h10c-.78 2.34-2.72 4-5 4zm3.5-7c-.83 0-1.5-.67-1.5-1.5S14.67 8 15.5 8s1.5.67 1.5 1.5-.67 1.5-1.5 1.5z" transform="translate(20 113)"/>
                </g>
            </g>
        </g>
    </g>
</svg>
